<svg width="61" height="61" viewBox="0 0 61 61" fill="none" xmlns="http://www.w3.org/2000/svg">
<path d="M20.5 47.133C16.3475 50.668 12.55 52.833 5.5 52.833C8 50.333 11.175 46.958 12.5025 41.7155C8.1675 38.118 5.5 33.2255 5.5 27.833C5.5 16.788 16.6925 7.83301 30.5 7.83301C43.25 7.83301 53.77 15.468 55.3075 25.333" stroke="#F5F5F5" stroke-width="3.33333" stroke-linecap="round" stroke-linejoin="round"/>
<path d="M40.5 50.0555C32.215 50.0555 25.5 45.0805 25.5 38.943C25.5 32.8055 32.215 27.833 40.5 27.833C48.785 27.833 55.5 32.808 55.5 38.943C55.5 41.9405 53.9 44.658 51.3 46.6555C52.0925 49.568 54 51.443 55.5 52.833C51 52.833 48.71 51.473 46.02 49.278C44.31 49.778 42.45 50.0555 40.5 50.0555Z" fill="#F5F5F5" stroke="#F5F5F5" stroke-width="3.33333" stroke-linecap="round" stroke-linejoin="round"/>
</svg>
