<svg width="23" height="22" viewBox="0 0 23 22" fill="none" xmlns="http://www.w3.org/2000/svg">
<path d="M18.7875 19.25C16.8778 19.25 14.9873 18.8375 13.1161 18.0125C11.2449 17.1875 9.54506 16.0111 8.01667 14.4833C6.48828 12.9556 5.31189 11.2597 4.4875 9.39583C3.66311 7.53194 3.25061 5.6375 3.25 3.7125V2.75H8.65833L9.50625 7.35625L6.89375 9.99167C7.22986 10.5875 7.60417 11.1528 8.01667 11.6875C8.42917 12.2222 8.87222 12.7188 9.34583 13.1771C9.78889 13.6201 10.2741 14.0442 10.8015 14.4494C11.3289 14.8546 11.8978 15.2326 12.5083 15.5833L15.1667 12.925L19.75 13.8646V19.25H18.7875Z" fill="#FFE5E9"/>
</svg>
