<svg width="23" height="22" viewBox="0 0 23 22" fill="none" xmlns="http://www.w3.org/2000/svg">
<path d="M7.14925 16.9529L7.81292 17.3406C8.93206 17.9935 10.205 18.3362 11.5007 18.3334C12.9511 18.3334 14.3689 17.9033 15.5748 17.0975C16.7808 16.2917 17.7207 15.1464 18.2758 13.8064C18.8308 12.4664 18.976 10.9919 18.6931 9.56938C18.4101 8.14685 17.7117 6.84018 16.6861 5.81459C15.6605 4.78901 14.3539 4.09057 12.9313 3.80762C11.5088 3.52466 10.0343 3.66988 8.69432 4.22492C7.35433 4.77997 6.20902 5.7199 5.40322 6.92586C4.59742 8.13182 4.16733 9.54964 4.16733 11C4.16466 12.2961 4.50766 13.5694 5.161 14.6887L5.54783 15.3524L4.94925 17.5533L7.14925 16.9529ZM2.33767 20.1667L3.577 15.6127C2.76021 14.2129 2.33116 12.6207 2.334 11C2.334 5.93729 6.43792 1.83337 11.5007 1.83337C16.5634 1.83337 20.6673 5.93729 20.6673 11C20.6673 16.0628 16.5634 20.1667 11.5007 20.1667C9.88069 20.1695 8.2892 19.7408 6.88983 18.9246L2.33767 20.1667ZM8.19242 6.69904C8.31586 6.69049 8.439 6.68926 8.56183 6.69537C8.61133 6.69904 8.66083 6.70393 8.71033 6.71004C8.85608 6.72654 9.0165 6.81546 9.07058 6.93829C9.34375 7.55857 9.60897 8.1819 9.86625 8.80829C9.92308 8.94762 9.88917 9.12637 9.781 9.30054C9.726 9.38946 9.63983 9.51412 9.53992 9.64154C9.43633 9.77446 9.21358 10.0183 9.21358 10.0183C9.21358 10.0183 9.12283 10.1265 9.15766 10.2612C9.1705 10.3125 9.21267 10.3868 9.25117 10.4491L9.30525 10.5362C9.53992 10.9276 9.85525 11.3245 10.2402 11.6985C10.3502 11.8049 10.4575 11.914 10.573 12.0157C11.002 12.3943 11.4878 12.7032 12.0122 12.9324L12.0167 12.9342C12.0947 12.9681 12.1341 12.9865 12.2477 13.035C12.3046 13.0589 12.3629 13.079 12.4228 13.0955C12.4448 13.1017 12.4671 13.105 12.4897 13.1056C12.542 13.1076 12.594 13.0968 12.6411 13.0741C12.6882 13.0514 12.7291 13.0176 12.7602 12.9755C13.4229 12.1725 13.4843 12.1202 13.4889 12.1202V12.122C13.535 12.0789 13.5897 12.0462 13.6495 12.0261C13.7093 12.0061 13.7727 11.9991 13.8354 12.0056C13.8916 12.0081 13.9457 12.0203 13.9977 12.0423C14.4844 12.265 15.281 12.6125 15.281 12.6125L15.8145 12.8517C15.9043 12.8948 15.9859 12.9965 15.9887 13.0946C15.9923 13.156 15.9978 13.255 15.9767 13.4365C15.9474 13.674 15.8759 13.959 15.8044 14.1085C15.7549 14.2101 15.6899 14.3035 15.6119 14.3853C15.5193 14.4823 15.4181 14.5707 15.3094 14.6493C15.2336 14.7055 15.1954 14.733 15.1948 14.7318C15.0808 14.8042 14.9637 14.8714 14.8437 14.9335C14.6076 15.0585 14.347 15.1305 14.0802 15.1443C13.9106 15.1535 13.741 15.1663 13.5705 15.1571C13.5632 15.1571 13.0498 15.0774 13.0498 15.0774C11.7466 14.7345 10.5413 14.0923 9.52983 13.2019C9.32267 13.0195 9.13017 12.8233 8.934 12.628C8.12 11.8168 7.50308 10.9414 7.12817 10.1145C6.93796 9.70866 6.83491 9.26743 6.82566 8.81929C6.82222 8.26264 7.00447 7.72073 7.34358 7.27929C7.4105 7.19312 7.47375 7.10329 7.58283 6.99971C7.69833 6.88971 7.77258 6.83104 7.85233 6.79071C7.9587 6.73846 8.07419 6.70733 8.19242 6.69904Z" fill="#FFE5E9"/>
</svg>
