<svg width="30" height="30" viewBox="0 0 30 30" fill="none" xmlns="http://www.w3.org/2000/svg">
<path d="M22.9688 0H7.03125C3.148 0 0 3.148 0 7.03125V22.9688C0 26.852 3.148 30 7.03125 30H22.9688C26.852 30 30 26.852 30 22.9688V7.03125C30 3.148 26.852 0 22.9688 0Z" fill="#131313"/>
<path d="M4.87922 23.7935H8.60789V14.7381L3.28125 10.7432V22.1955C3.28125 23.0797 3.99773 23.7935 4.87922 23.7935Z" fill="#737373"/>
<path d="M21.3926 23.7936H25.1214C26.0055 23.7936 26.7193 23.0771 26.7193 22.1957V10.7432L21.3926 14.7382" fill="#BDBDBD"/>
<path d="M21.3926 7.81357V14.7383L26.7193 10.7434V8.61243C26.7193 6.6363 24.4635 5.50966 22.8841 6.69489" fill="#DBDBDB"/>
<path d="M8.60742 14.7383V7.81371L14.9994 12.6075L21.3914 7.81348V14.7382L14.9994 19.5323" fill="#F5F5F5"/>
<path d="M3.28125 8.61243V10.7431L8.60789 14.7382V7.81357L7.11645 6.69489C5.53441 5.50966 3.28125 6.6363 3.28125 8.61243Z" fill="#A3A3A3"/>
</svg>
